<svg xmlns="http://www.w3.org/2000/svg" width="33" height="48" viewBox="0 0 33 48" fill="none">
<path fill-rule="evenodd" clip-rule="evenodd" d="M20.1771 22.3417V10.6204L16.1924 4.75977L12.2077 10.6204V14.5275H4.23828V41.8773H28.1466V22.3417H20.1771ZM9.55176 37.9706H6.89528V34.0635H9.55176V37.9706ZM9.55175 30.156H6.89528V26.2489H9.55175V30.156ZM9.55175 22.3417H6.89528V18.4346H9.55175V22.3417ZM17.5207 37.9706H14.8643V34.0635H17.5207V37.9706ZM17.5207 30.156H14.8643V26.2489H17.5207V30.156ZM17.5207 22.3417H14.8643V18.4346H17.5207V22.3417ZM17.5207 14.5272H14.8643V10.6201H17.5207V14.5272ZM25.4906 37.9706H22.8341V34.0635H25.4906V37.9706ZM25.4906 30.156H22.8341V26.2489H25.4906V30.156Z" fill="#898989"/>
</svg>
