<svg width="33" height="33" viewBox="0 0 33 33" fill="none" xmlns="http://www.w3.org/2000/svg">
<g id="Credit card_light">
<path id="Rectangle 25" d="M4.81274 15.7665C4.81274 13.3503 4.81274 12.1421 5.29043 11.2226C5.69298 10.4476 6.32482 9.81578 7.09975 9.41324C8.01934 8.93555 9.22748 8.93555 11.6437 8.93555H21.3567C23.773 8.93555 24.9811 8.93555 25.9007 9.41324C26.6757 9.81578 27.3075 10.4476 27.7101 11.2226C28.1877 12.1421 28.1877 13.3503 28.1877 15.7665V18.6045C28.1877 21.0208 28.1877 22.2289 27.7101 23.1485C27.3075 23.9235 26.6757 24.5553 25.9007 24.9579C24.9811 25.4355 23.773 25.4355 21.3567 25.4355H11.6437C9.22748 25.4355 8.01934 25.4355 7.09975 24.9579C6.32482 24.5553 5.69298 23.9235 5.29043 23.1485C4.81274 22.2289 4.81274 21.0208 4.81274 18.6045V15.7665Z" stroke="#33A3AA" stroke-width="1.88571"/>
<path id="Vector 71" d="M4.81274 14.4375L28.1877 14.4375" stroke="#33A3AA" stroke-width="1.88571" stroke-linecap="round"/>
<circle id="Ellipse 151" cx="8.9375" cy="21.3125" r="0.6875" fill="#33A3AA"/>
</g>
</svg>
