<svg width="17" height="16" viewBox="0 0 17 16" fill="none" xmlns="http://www.w3.org/2000/svg">
<g id="ic_google logo">
<path id="Path" d="M16.6842 8.18887C16.6842 7.64675 16.6373 7.10169 16.5372 6.56836H8.50977V9.63942H13.1067C12.916 10.6299 12.303 11.5061 11.4055 12.0629V14.0555H14.1481C15.7586 12.6665 16.6842 10.6152 16.6842 8.18887Z" fill="#4285F4"/>
<path id="Path_2" d="M8.51059 15.9801C10.8059 15.9801 12.7417 15.2739 14.152 14.0548L11.4095 12.0621C10.6465 12.5486 9.66139 12.824 8.51371 12.824C6.29341 12.824 4.41085 11.4204 3.73538 9.5332H0.905273V11.5874C2.35003 14.2805 5.29271 15.9801 8.51059 15.9801Z" fill="#34A853"/>
<path id="Path_3" d="M3.7323 9.53347C3.3758 8.543 3.3758 7.47047 3.7323 6.47999V4.42578H0.90532C-0.301773 6.67926 -0.301773 9.33421 0.90532 11.5877L3.7323 9.53347Z" fill="#FBBC04"/>
<path id="Path_4" d="M8.51059 3.18588C9.72393 3.1683 10.8966 3.59613 11.7754 4.38148L14.2052 2.10456C12.6666 0.750713 10.6246 0.00639108 8.51059 0.0298343C5.29271 0.0298343 2.35003 1.72947 0.905273 4.42544L3.73225 6.47965C4.40459 4.58954 6.29029 3.18588 8.51059 3.18588Z" fill="#EA4335"/>
</g>
</svg>
