<svg width="111" height="113" viewBox="0 0 111 113" fill="none" xmlns="http://www.w3.org/2000/svg">
<g id="Success">
<path id="Success_2" d="M55.5 0C24.8985 0 0 25.2045 0 56.1821C0 87.1597 24.8985 112.364 55.5 112.364C86.1015 112.364 111 87.1597 111 56.1821C111 25.2045 86.1015 0 55.5 0ZM86.5188 41.3974L51.0489 77.0216C48.9624 79.1337 45.6241 79.2745 43.3985 77.1624L24.6203 59.8431C22.3947 57.731 22.2556 54.2108 24.203 51.9579C26.2895 49.705 29.7669 49.5642 31.9925 51.6763L46.8759 65.4754L78.5902 33.3713C80.8158 31.1184 84.2932 31.1184 86.5188 33.3713C88.7444 35.6243 88.7444 39.1444 86.5188 41.3974Z" fill="#33A3AA"/>
</g>
</svg>
